<svg width="63" height="71" viewBox="0 0 63 71" fill="none" xmlns="http://www.w3.org/2000/svg">
<path fill-rule="evenodd" clip-rule="evenodd" d="M7.26682 14.3678C9.54716 11.2175 12.466 8.58331 15.8331 6.63712C20.9336 3.692 26.8482 2.47134 32.698 3.15655C34.8605 3.40185 36.9867 3.90007 39.0331 4.64099C39.1695 4.69122 39.3145 4.71399 39.4598 4.70798C39.605 4.70197 39.7477 4.6673 39.8795 4.60596C40.0113 4.54463 40.1297 4.45785 40.2278 4.3506C40.326 4.24335 40.402 4.11776 40.4514 3.98104C40.5008 3.84433 40.5228 3.69918 40.5159 3.55396C40.509 3.40874 40.4735 3.26631 40.4114 3.13486C40.3494 3.00341 40.2619 2.88554 40.1541 2.78801C40.0462 2.69049 39.9202 2.61524 39.7832 2.5666C37.5744 1.76707 35.2793 1.22959 32.9451 0.965161C28.4858 0.447188 23.9672 0.949341 19.7304 2.43369C15.4936 3.91804 11.6496 6.34578 8.48859 9.53351C7.3955 10.6343 6.38949 11.8183 5.47962 13.0748C5.3153 13.312 5.25052 13.6042 5.29919 13.8887C5.34785 14.1732 5.50608 14.4272 5.73991 14.5964C5.97375 14.7655 6.26457 14.8363 6.54998 14.7934C6.83539 14.7506 7.09264 14.5976 7.26655 14.3673L7.26682 14.3678ZM17.4605 55.9556C23.1599 59.8644 29.3966 62.9251 35.9754 65.042C37.8636 65.6514 39.814 66.2221 41.771 66.7361C41.9116 66.7724 42.0436 66.8362 42.1594 66.9237C42.2753 67.0113 42.3727 67.1208 42.4462 67.2461C42.5196 67.3713 42.5676 67.5099 42.5873 67.6537C42.6071 67.7976 42.5983 67.9439 42.5613 68.0843C42.5244 68.2248 42.4601 68.3565 42.3721 68.472C42.2841 68.5876 42.1742 68.6846 42.0487 68.7575C41.9231 68.8304 41.7844 68.8779 41.6405 68.8971C41.4965 68.9163 41.3502 68.9069 41.21 68.8694C39.2141 68.3449 37.2251 67.7633 35.2977 67.1408C28.5158 64.9585 22.0866 61.8031 16.2113 57.7736C16.0903 57.6922 15.9866 57.5877 15.9062 57.4661C15.8258 57.3444 15.7703 57.208 15.743 57.0648C15.7157 56.9216 15.717 56.7744 15.7469 56.6317C15.7769 56.4889 15.8348 56.3536 15.9174 56.2334C15.9999 56.1132 16.1055 56.0106 16.228 55.9315C16.3505 55.8524 16.4875 55.7984 16.631 55.7726C16.7745 55.7467 16.9217 55.7496 17.0641 55.781C17.2065 55.8125 17.3412 55.8718 17.4605 55.9556ZM24.3802 65.0777C24.5257 65.0875 24.6678 65.1259 24.7984 65.1909C27.3514 66.4295 29.9751 67.5169 32.6558 68.4474C32.9322 68.5432 33.1592 68.745 33.2868 69.0082C33.4144 69.2714 33.4323 69.5746 33.3364 69.8509C33.2405 70.1273 33.0388 70.3543 32.7756 70.4819C32.5124 70.6096 32.2092 70.6274 31.9328 70.5316C29.1704 69.5726 26.4667 68.452 23.8358 67.1756C23.704 67.1133 23.5858 67.0255 23.4881 66.9173C23.3904 66.8091 23.3151 66.6826 23.2666 66.5451C23.2181 66.4075 23.1973 66.2618 23.2055 66.1162C23.2137 65.9706 23.2507 65.8281 23.3143 65.6969C23.378 65.5657 23.467 65.4485 23.5762 65.3519C23.6855 65.2553 23.8128 65.1814 23.9508 65.1343C24.0888 65.0872 24.2348 65.068 24.3802 65.0777ZM1.88986 27.4771C1.6569 27.654 1.36321 27.7311 1.0734 27.6915C0.929864 27.6718 0.7916 27.6241 0.666503 27.5511C0.541407 27.478 0.43193 27.381 0.344324 27.2657C0.256718 27.1503 0.1927 27.0188 0.155926 26.8786C0.119153 26.7385 0.110344 26.5925 0.130005 26.449C0.587193 23.0828 1.61957 19.8202 3.18205 16.8037C3.31656 16.5439 3.54877 16.3481 3.82759 16.2596C3.96565 16.2157 4.111 16.1994 4.25533 16.2117C4.39967 16.224 4.54017 16.2647 4.66881 16.3313C4.92862 16.4658 5.12434 16.698 5.21294 16.9768C5.30153 17.2556 5.27574 17.5582 5.14123 17.818C3.69459 20.6108 2.7388 23.6316 2.31562 26.7482C2.27597 27.038 2.12282 27.3002 1.88986 27.4771ZM6.03855 36.3189C6.18069 36.291 6.31592 36.2353 6.43653 36.155C6.55714 36.0748 6.66077 35.9716 6.74149 35.8513C6.82221 35.731 6.87845 35.596 6.90699 35.454C6.93552 35.312 6.93581 35.1658 6.90782 35.0236C5.96416 30.2793 6.53031 25.3585 8.52677 20.9524C10.5232 16.5464 13.8497 12.8763 18.039 10.4578C26.7482 5.4295 37.9857 6.69436 45.3657 13.5322C45.3856 13.5508 45.4065 13.5687 45.4283 13.5855C46.0522 14.0707 46.7097 14.5111 47.3958 14.9035C47.521 14.9762 47.6594 15.0236 47.8029 15.0428C47.9465 15.0621 48.0924 15.0529 48.2324 15.0158C48.3724 14.9786 48.5037 14.9143 48.6189 14.8264C48.734 14.7385 48.8307 14.6288 48.9035 14.5036C48.9762 14.3783 49.0236 14.24 49.0428 14.0964C49.0621 13.9528 49.0529 13.8069 49.0158 13.6669C48.9786 13.5269 48.9143 13.3956 48.8264 13.2804C48.7385 13.1653 48.6288 13.0686 48.5036 12.9959C47.9224 12.6634 47.3645 12.2921 46.8334 11.8844C38.7498 4.42154 26.462 3.04764 16.936 8.54746C12.3483 11.1961 8.70528 15.2151 6.5185 20.0401C4.33172 24.8651 3.71098 30.2539 4.74344 35.4497C4.79992 35.7367 4.9681 35.9895 5.21098 36.1525C5.45386 36.3155 5.75154 36.3754 6.03855 36.3189ZM13.2981 46.9526C14.8258 48.4695 23.1641 56.2693 37.3309 60.8437C38.0549 61.0775 38.7929 61.3068 39.5245 61.5245C39.8049 61.6082 40.0406 61.7999 40.1797 62.0574C40.3188 62.3149 40.3499 62.6171 40.2662 62.8975C40.1824 63.178 39.9907 63.4136 39.7333 63.5527C39.4758 63.6918 39.1736 63.7229 38.8931 63.6392C38.1463 63.4163 37.3927 63.1821 36.6534 62.9433C22.0087 58.2139 13.334 50.0968 11.7435 48.5172C9.2558 46.0557 7.30946 43.1019 6.02905 39.8449C5.97539 39.71 5.94888 39.5658 5.95104 39.4207C5.95321 39.2756 5.98401 39.1323 6.04167 38.999C6.09933 38.8658 6.18272 38.7453 6.28706 38.6444C6.3914 38.5435 6.51464 38.4641 6.6497 38.4109C6.78477 38.3577 6.929 38.3317 7.07414 38.3344C7.21928 38.3371 7.36246 38.3684 7.49548 38.4265C7.6285 38.4846 7.74873 38.5684 7.84929 38.6731C7.94985 38.7778 8.02875 38.9013 8.08148 39.0366C9.25037 42.0096 11.0272 44.7058 13.2981 46.9526ZM49.416 63.9783C47.5825 63.613 45.7389 63.1966 43.9357 62.7406C43.6521 62.6689 43.3516 62.7128 43.1004 62.8626C42.8491 63.0125 42.6677 63.256 42.596 63.5396C42.5243 63.8232 42.5682 64.1236 42.718 64.3749C42.8678 64.6261 43.1113 64.8076 43.3949 64.8793C45.2342 65.3444 47.1149 65.7692 48.9847 66.1414C49.1267 66.1697 49.2729 66.1697 49.415 66.1415C49.5571 66.1133 49.6922 66.0574 49.8127 65.977C49.9331 65.8966 50.0366 65.7932 50.1171 65.6728C50.1976 65.5524 50.2536 65.4173 50.2819 65.2752C50.3102 65.1332 50.3103 64.9869 50.2821 64.8449C50.2539 64.7028 50.1979 64.5677 50.1175 64.4472C50.0371 64.3268 49.9337 64.2233 49.8133 64.1428C49.6929 64.0623 49.5578 64.0063 49.4158 63.978L49.416 63.9783ZM50.8877 18.8606C51.2661 18.9827 51.6547 19.104 52.0428 19.2209L52.043 19.2209C52.323 19.3052 52.5581 19.4974 52.6965 19.7552C52.8349 20.0129 52.8653 20.315 52.7809 20.5951C52.6965 20.8752 52.5043 21.1103 52.2466 21.2487C51.9889 21.3871 51.6868 21.4174 51.4067 21.333C51.0046 21.2118 50.6015 21.0864 50.2099 20.9596C45.8056 19.5373 43.0194 17.3243 42.5057 16.8951C42.4892 16.8814 42.4732 16.8672 42.4576 16.8526C41.0205 15.5032 39.377 14.3919 37.5893 13.5609C37.4565 13.5007 37.337 13.4148 37.2377 13.3081C37.1383 13.2015 37.0611 13.0762 37.0104 12.9395C36.9598 12.8028 36.9368 12.6574 36.9427 12.5118C36.9486 12.3661 36.9833 12.2231 37.0448 12.0909C37.1064 11.9588 37.1935 11.8401 37.3011 11.7418C37.4088 11.6436 37.5349 11.5676 37.6721 11.5183C37.8093 11.4691 37.9548 11.4475 38.1004 11.4549C38.246 11.4622 38.3887 11.4984 38.5202 11.5612C40.5102 12.4864 42.3406 13.7218 43.9428 15.2215C44.321 15.5335 46.8809 17.5667 50.8877 18.8606ZM16.3154 17.305C18.5375 15.0644 21.2913 13.4237 24.3194 12.5359C27.3476 11.6482 30.5514 11.5424 33.6315 12.2285C33.9173 12.2908 34.2162 12.2369 34.4623 12.0788C34.7084 11.9207 34.8817 11.6713 34.9439 11.3854C35.0061 11.0996 34.9522 10.8007 34.7941 10.5546C34.636 10.3085 34.3866 10.1353 34.1008 10.0731C30.6583 9.30808 27.0782 9.42758 23.6945 10.4204C20.3107 11.4132 17.2336 13.247 14.7502 15.7507C6.60722 23.9495 6.65356 37.2441 14.8525 45.3872C16.2934 46.7838 17.8288 48.0797 19.4477 49.2654C19.6824 49.44 19.9769 49.5142 20.2663 49.4717C20.5557 49.4292 20.8164 49.2734 20.991 49.0387C21.1656 48.804 21.2397 48.5095 21.1972 48.2201C21.1547 47.9307 20.9989 47.67 20.7642 47.4954C19.2291 46.3725 17.773 45.1452 16.4064 43.8224C9.07112 36.5361 9.02989 24.6405 16.3154 17.305ZM38.6867 56.6454C43.7732 58.2838 48.978 59.5293 54.2552 60.3708L54.2551 60.3707C54.544 60.4168 54.8027 60.5758 54.9743 60.8126C55.146 61.0495 55.2165 61.3449 55.1704 61.6337C55.1242 61.9226 54.9652 62.1813 54.7284 62.353C54.4915 62.5246 54.1961 62.5951 53.9073 62.549C48.5182 61.6896 43.203 60.4177 38.0087 58.7444C32.7009 57.0381 27.6336 54.6589 22.9305 51.6649C22.8072 51.5874 22.7006 51.4864 22.6166 51.3676C22.5326 51.2487 22.473 51.1145 22.4411 50.9725C22.4093 50.8305 22.4058 50.6836 22.431 50.5403C22.4561 50.3969 22.5094 50.26 22.5878 50.1374C22.6661 50.0147 22.7679 49.9088 22.8873 49.8257C23.0068 49.7426 23.1415 49.6839 23.2837 49.6531C23.4259 49.6223 23.5728 49.6199 23.716 49.6461C23.8591 49.6723 23.9956 49.7266 24.1177 49.8058C28.662 52.6984 33.5582 54.997 38.6867 56.6454ZM39.5426 20.1667C39.9159 20.4904 43.3495 23.3804 48.8543 25.158C50.5829 25.7162 52.3884 26.2204 54.2208 26.6567C54.5054 26.7245 54.8052 26.6764 55.0543 26.5231C55.1777 26.4472 55.2849 26.3477 55.3698 26.2303C55.4547 26.113 55.5157 25.9801 55.5492 25.8392C55.5828 25.6983 55.5882 25.5521 55.5653 25.4091C55.5424 25.2661 55.4915 25.129 55.4156 25.0057C55.3397 24.8823 55.2402 24.7751 55.1229 24.6902C55.0055 24.6053 54.8726 24.5443 54.7317 24.5107C52.9553 24.0877 51.2059 23.5993 49.5316 23.0591C44.5225 21.4418 41.4248 18.8765 41.0052 18.516C38.41 16.0739 35.0991 14.5297 31.5603 14.1107C28.0214 13.6918 24.4415 14.4203 21.3478 16.1889C21.0944 16.3351 20.9096 16.576 20.8339 16.8586C20.7582 17.1411 20.7978 17.4422 20.9441 17.6955C21.0903 17.9488 21.3312 18.1337 21.6138 18.2094C21.8963 18.2851 22.1974 18.2455 22.4507 18.0992C25.1355 16.5644 28.2426 15.9335 31.3134 16.2996C34.3842 16.6657 37.256 18.0093 39.5047 20.1323C39.5171 20.1439 39.5296 20.1555 39.5426 20.1667ZM32.8865 51.9601C32.7418 51.9545 32.5996 51.9205 32.468 51.86C24.1072 48.0138 19.2506 43.5372 17.9614 42.257C14.9367 39.2465 13.1906 35.1847 13.0872 30.9184C12.9839 26.652 14.5312 22.5104 17.4067 19.357C17.6041 19.1412 17.8792 19.0126 18.1715 18.9996C18.4637 18.9866 18.7492 19.0902 18.965 19.2877C19.1808 19.4851 19.3094 19.7602 19.3224 20.0525C19.3354 20.3447 19.2318 20.6302 19.0343 20.846C16.5432 23.5793 15.2028 27.1685 15.2925 30.8656C15.3822 34.5627 16.8951 38.0827 19.5158 40.6919C20.3874 41.5574 25.1524 46.0662 33.3899 49.856C33.5215 49.9165 33.6398 50.0023 33.7382 50.1086C33.8366 50.2149 33.9132 50.3395 33.9634 50.4754C34.0136 50.6112 34.0366 50.7556 34.0311 50.9004C34.0255 51.0451 33.9915 51.1873 33.9309 51.3189C33.8704 51.4505 33.7845 51.5689 33.6783 51.6673C33.572 51.7657 33.4474 51.8422 33.3115 51.8924C33.1757 51.9427 33.0312 51.9657 32.8865 51.9601ZM57.5789 56.402C51.6268 55.6109 45.7578 54.2873 40.0423 52.447C39.1342 52.1538 38.2221 51.8353 37.3309 51.5007C37.1951 51.4488 37.0504 51.4243 36.9051 51.4285C36.7599 51.4327 36.6169 51.4656 36.4843 51.5253C36.3518 51.585 36.2324 51.6702 36.1329 51.7762C36.0335 51.8822 35.9559 52.0068 35.9048 52.1429C35.8537 52.2789 35.8299 52.4237 35.8349 52.569C35.8399 52.7142 35.8736 52.8571 35.934 52.9893C35.9944 53.1215 36.0803 53.2404 36.1868 53.3393C36.2933 53.4382 36.4184 53.515 36.5547 53.5654C37.4777 53.9126 38.423 54.2426 39.364 54.5465C45.2073 56.4277 51.2077 57.7806 57.2929 58.5889C57.4377 58.6104 57.5854 58.6028 57.7273 58.5667C57.8692 58.5305 58.0025 58.4664 58.1194 58.3781C58.2362 58.2899 58.3343 58.1793 58.408 58.0527C58.4817 57.9261 58.5294 57.7862 58.5484 57.641C58.5674 57.4958 58.5573 57.3482 58.5186 57.207C58.48 57.0657 58.4136 56.9336 58.3234 56.8183C58.2331 56.7029 58.1208 56.6067 57.993 56.5353C57.8652 56.4638 57.7244 56.4185 57.5789 56.402ZM48.1766 27.2569C51.3431 28.2747 54.5738 29.0805 57.8473 29.669L57.8476 29.6688C58.1343 29.722 58.3883 29.8866 58.5539 30.1266C58.7196 30.3665 58.7835 30.6623 58.7317 30.9492C58.6799 31.2362 58.5166 31.491 58.2774 31.6578C58.0383 31.8246 57.7428 31.89 57.4556 31.8396C54.0852 31.2337 50.7589 30.4041 47.4987 29.3561C46.2963 28.9674 45.1157 28.5137 43.9624 27.9971C43.6966 27.8767 43.4893 27.656 43.3859 27.3831C43.2825 27.1103 43.2915 26.8076 43.4108 26.5413C43.5302 26.275 43.7501 26.0669 44.0226 25.9625C44.295 25.858 44.5978 25.8658 44.8645 25.9841C45.9447 26.468 47.0503 26.8929 48.1766 27.2569ZM22.5759 23.5227C24.4129 21.672 26.9046 20.6188 29.5122 20.5907C32.1197 20.5627 34.6335 21.5621 36.5099 23.3729L36.5222 23.3845L36.5361 23.3973C36.7483 23.5889 37.9087 24.6086 39.9314 25.8615C40.0545 25.9378 40.1915 25.9891 40.3345 26.0124C40.4774 26.0358 40.6236 26.0308 40.7646 25.9976C40.9056 25.9645 41.0388 25.9039 41.1564 25.8193C41.274 25.7348 41.3738 25.6279 41.4501 25.5047C41.5263 25.3816 41.5776 25.2446 41.601 25.1016C41.6243 24.9587 41.6193 24.8125 41.5862 24.6715C41.5531 24.5305 41.4925 24.3974 41.4079 24.2797C41.3233 24.1621 41.2164 24.0623 41.0933 23.9861C40.0121 23.3335 38.9867 22.5928 38.0275 21.7714C35.7205 19.5512 32.6295 18.333 29.4281 18.3822C26.2267 18.4314 23.1746 19.7442 20.937 22.0342C18.6994 24.3243 17.4577 27.406 17.4827 30.6077C17.5076 33.8093 18.7971 36.8713 21.0702 39.1262C22.2853 40.3328 28.9433 46.5447 40.7203 50.3477C43.2399 51.1612 45.8382 51.8835 48.443 52.4945C48.7278 52.5613 49.0275 52.5123 49.2761 52.3581C49.5247 52.204 49.7019 51.9574 49.7687 51.6726C49.8355 51.3877 49.7864 51.0881 49.6322 50.8395C49.4781 50.5909 49.2315 50.4137 48.9467 50.3469C46.4001 49.7497 43.8604 49.0437 41.3979 48.2485C30.0985 44.5996 23.7766 38.7054 22.6242 37.5609C20.759 35.7042 19.7065 33.1835 19.6974 30.5518C19.6883 27.9201 20.7235 25.3922 22.5759 23.5227ZM53.2822 51.2593C55.5112 51.6748 57.7082 52.002 59.8127 52.232L59.8131 52.2318C60.1027 52.265 60.3674 52.4115 60.5493 52.6393C60.7312 52.8671 60.8155 53.1576 60.7839 53.4474C60.7522 53.7371 60.6071 54.0026 60.3803 54.1857C60.1534 54.3688 59.8634 54.4547 59.5734 54.4246C57.414 54.1886 55.1618 53.853 52.8785 53.4277C52.5943 53.3708 52.3438 53.2042 52.1815 52.964C52.0191 52.7238 51.9578 52.4294 52.0108 52.1444C52.0639 51.8593 52.2271 51.6067 52.465 51.441C52.7029 51.2754 52.9965 51.2101 53.2822 51.2593ZM60.1402 34.5022C55.6207 33.8734 51.1642 32.8539 46.8208 31.4554C39.4741 29.0831 35.2614 25.2251 35.004 24.985C33.5417 23.5603 31.5746 22.7727 29.5331 22.7947C27.4916 22.8167 25.542 23.6464 24.1107 25.1022C22.6794 26.5581 21.883 28.5216 21.8958 30.5632C21.9086 32.6047 22.7294 34.5581 24.1788 35.9959C24.2854 36.1017 24.5168 36.3262 24.8683 36.6417C25.0863 36.8353 25.3721 36.9347 25.6632 36.9181C25.9543 36.9015 26.227 36.7704 26.4217 36.5533C26.6163 36.3363 26.7171 36.051 26.702 35.7598C26.6869 35.4687 26.5572 35.1953 26.3411 34.9996C26.026 34.7168 25.825 34.5217 25.7331 34.4306C24.6957 33.4034 24.1079 32.0067 24.0987 30.5468C24.0895 29.0869 24.6596 27.6829 25.6839 26.6427C26.7083 25.6024 28.1033 25.0108 29.5632 24.9975C31.0231 24.9842 32.4286 25.5504 33.4717 26.5718L33.4871 26.5867C33.6781 26.766 38.2535 31.0071 46.1429 33.5546C50.6098 34.9928 55.1928 36.0411 59.8407 36.6879C59.9842 36.7075 60.1302 36.6988 60.2703 36.662C60.4104 36.6253 60.5419 36.5613 60.6573 36.4737C60.7727 36.3861 60.8697 36.2767 60.9428 36.1516C61.0159 36.0266 61.0636 35.8883 61.0833 35.7448C61.1029 35.6013 61.0941 35.4553 61.0574 35.3152C61.0206 35.1751 60.9566 35.0436 60.8691 34.9282C60.7815 34.8128 60.6721 34.7158 60.547 34.6427C60.4219 34.5696 60.2837 34.5219 60.1402 34.5022ZM42.7531 44.0507C50.9096 46.6841 57.7846 47.6173 61.1566 47.9393L61.1559 47.9392C61.4471 47.967 61.7154 48.1094 61.9016 48.3349C62.0879 48.5605 62.1769 48.8508 62.1491 49.142C62.1213 49.4332 61.979 49.7015 61.7534 49.8877C61.5278 50.074 61.2375 50.163 60.9463 50.1352C57.4848 49.8047 50.4303 48.8473 42.0751 46.1495C37.2285 44.5975 32.6368 42.3404 28.4477 39.4509C28.3277 39.3685 28.2252 39.2632 28.1461 39.141C28.067 39.0188 28.0129 38.8821 27.9868 38.7389C27.9608 38.5957 27.9634 38.4488 27.9944 38.3065C28.0254 38.1643 28.0843 38.0297 28.1676 37.9103C28.2509 37.7909 28.3571 37.6893 28.4799 37.6111C28.6027 37.533 28.7397 37.4799 28.8831 37.455C29.0266 37.4301 29.1735 37.4338 29.3155 37.4659C29.4574 37.4981 29.5916 37.558 29.7103 37.6422C33.7198 40.407 38.1145 42.5663 42.7531 44.0507ZM61.6964 43.5622C58.5085 43.2682 51.9845 42.395 44.1093 39.852C34.3582 36.7033 29.0622 31.5195 28.8418 31.3003C28.6341 31.0943 28.5169 30.8141 28.5158 30.5216C28.5146 30.2291 28.6298 29.9481 28.8359 29.7404C29.0419 29.5328 29.322 29.4155 29.6146 29.4144C29.9071 29.4133 30.1881 29.5285 30.3957 29.7345C30.4467 29.7847 35.6009 34.7862 44.787 37.7525C45.5679 38.0047 46.3689 38.25 47.1678 38.4816C47.3073 38.5232 47.4536 38.5369 47.5984 38.5217C47.7432 38.5065 47.8835 38.4628 48.0113 38.3931C48.1391 38.3234 48.2518 38.2291 48.343 38.1156C48.4342 38.0021 48.502 37.8717 48.5426 37.7319C48.5831 37.5921 48.5956 37.4456 48.5792 37.301C48.5629 37.1563 48.5181 37.0163 48.4474 36.8891C48.3767 36.7618 48.2815 36.6498 48.1673 36.5596C48.0531 36.4693 47.9222 36.4025 47.7821 36.363C47.0044 36.1375 46.2246 35.8989 45.4648 35.6533C36.8549 32.8729 31.9885 28.2065 31.9448 28.1641C31.6361 27.8583 31.2701 27.6163 30.8679 27.4519C30.4656 27.2875 30.035 27.204 29.6004 27.2061C29.1659 27.2082 28.736 27.2958 28.3354 27.464C27.9347 27.6322 27.5711 27.8777 27.2653 28.1864C26.9595 28.4951 26.7175 28.8611 26.5532 29.2633C26.3888 29.6656 26.3053 30.0963 26.3073 30.5308C26.3094 30.9653 26.3971 31.3952 26.5653 31.7958C26.7335 32.1965 26.9789 32.5601 27.2877 32.8659C27.5236 33.1003 33.1842 38.6427 43.4317 41.9517C51.509 44.5598 58.2154 45.4567 61.494 45.7592C61.639 45.774 61.7855 45.7599 61.9251 45.7178C62.0646 45.6757 62.1944 45.6063 62.3069 45.5137C62.4195 45.4211 62.5126 45.3071 62.5808 45.1783C62.6491 45.0495 62.6911 44.9084 62.7045 44.7633C62.7179 44.6182 62.7024 44.4718 62.6589 44.3327C62.6154 44.1936 62.5447 44.0645 62.451 43.9528C62.3573 43.8412 62.2424 43.7492 62.1129 43.6823C61.9834 43.6153 61.842 43.5747 61.6967 43.5627L61.6964 43.5622ZM58.9951 38.8012C59.8452 38.9244 60.6692 39.0282 61.4445 39.1103L61.4447 39.1108C61.5898 39.1247 61.7306 39.1673 61.8591 39.236C61.9876 39.3047 62.1012 39.3982 62.1934 39.5111C62.2855 39.6239 62.3544 39.7539 62.396 39.8936C62.4377 40.0332 62.4512 40.1797 62.4359 40.3246C62.4206 40.4695 62.3767 40.6099 62.3068 40.7378C62.2369 40.8656 62.1423 40.9783 62.0286 41.0694C61.9149 41.1605 61.7843 41.2282 61.6442 41.2685C61.5042 41.3088 61.3576 41.321 61.2128 41.3043C60.4093 41.219 59.5568 41.1115 58.6789 40.9843C56.3562 40.6479 53.9608 40.1925 51.5591 39.6307C51.417 39.5987 51.2827 39.5389 51.1639 39.4548C51.045 39.3706 50.944 39.2638 50.8667 39.1404C50.7893 39.017 50.7372 38.8795 50.7133 38.7359C50.6894 38.5922 50.6941 38.4453 50.7273 38.3035C50.7604 38.1617 50.8214 38.0279 50.9065 37.9097C50.9917 37.7916 51.0994 37.6915 51.2234 37.6152C51.3474 37.5389 51.4853 37.4879 51.6292 37.4652C51.773 37.4425 51.9199 37.4485 52.0614 37.4829C54.4019 38.0303 56.7347 38.4738 58.9951 38.8012Z" fill="url(#paint0_linear_12_37)"/>
<defs>
<linearGradient id="paint0_linear_12_37" x1="17.5293" y1="31.8216" x2="32.9986" y2="58.6152" gradientUnits="userSpaceOnUse">
<stop stop-color="#80D769"/>
<stop offset="1" stop-color="#324C9A"/>
</linearGradient>
</defs>
</svg>
