<svg width="40" height="40" viewBox="0 0 40 40" fill="none" xmlns="http://www.w3.org/2000/svg">
<path fill-rule="evenodd" clip-rule="evenodd" d="M20.9888 7.86412C20.7536 7.53722 20.376 7.34302 19.9731 7.34302C19.5702 7.34302 19.1927 7.53722 18.9574 7.86412L16.5546 11.2139L12.627 12.4635C12.2423 12.5866 11.9407 12.8857 11.8165 13.2693C11.6922 13.6517 11.7598 14.0715 11.9986 14.396L14.4424 17.7156L14.4171 21.8385C14.4147 22.2414 14.6065 22.6202 14.9322 22.8566C15.2579 23.0942 15.6777 23.1594 16.06 23.0327L19.9731 21.7336L23.8862 23.0327C24.2674 23.1594 24.6883 23.0942 25.014 22.8566C25.3397 22.6202 25.5315 22.2414 25.5291 21.8385L25.5038 17.7156L27.9476 14.396C28.1853 14.0715 28.254 13.6517 28.1286 13.2693C28.0043 12.8857 27.7028 12.5866 27.3192 12.4635L23.3916 11.2139L20.9888 7.86412ZM19.9731 10.7374L21.6015 13.0076C21.7584 13.2271 21.9815 13.3887 22.2384 13.4708L24.9006 14.3176L23.2445 16.5684C23.0852 16.7855 22.9996 17.0473 23.002 17.3163L23.0189 20.1112L20.3663 19.2306C20.1106 19.1462 19.8344 19.1462 19.5799 19.2306L16.9273 20.1112L16.9442 17.3163C16.9466 17.0473 16.861 16.7855 16.7018 16.5684L15.0444 14.3176L17.7078 13.4708C17.9647 13.3887 18.1879 13.2271 18.3447 13.0076L19.9731 10.7374Z" fill="url(#paint0_linear_293_2955)"/>
<path fill-rule="evenodd" clip-rule="evenodd" d="M10.3051 24.9375V34.44C10.3051 35.5313 10.8851 36.5387 11.8288 37.0863C12.7726 37.6337 13.9351 37.6375 14.8826 37.0963C16.5488 36.145 18.5776 34.985 19.7226 34.3312C19.8951 34.2325 20.1051 34.2325 20.2776 34.3312C21.4226 34.985 23.4513 36.145 25.1176 37.0963C26.0651 37.6375 27.2276 37.6337 28.1713 37.0863C29.1151 36.5387 29.6951 35.5313 29.6951 34.44V24.9375C31.9388 22.5537 33.3151 19.3438 33.3151 15.815C33.3151 8.46625 27.3488 2.5 20.0001 2.5C12.6513 2.5 6.68506 8.46625 6.68506 15.815C6.68506 19.3438 8.06131 22.5537 10.3051 24.9375ZM27.1951 27.0175C25.1201 28.3537 22.6501 29.13 20.0001 29.13C17.3501 29.13 14.8801 28.3537 12.8051 27.0175V34.44C12.8051 34.64 12.9113 34.8238 13.0838 34.925C13.2563 35.025 13.4688 35.025 13.6426 34.9263L18.4826 32.16C19.4226 31.6225 20.5776 31.6225 21.5176 32.16L26.3576 34.9263C26.5313 35.025 26.7438 35.025 26.9163 34.925C27.0888 34.8238 27.1951 34.64 27.1951 34.44V27.0175ZM20.0001 5C25.9688 5 30.8151 9.84625 30.8151 15.815C30.8151 21.7838 25.9688 26.63 20.0001 26.63C14.0313 26.63 9.18506 21.7838 9.18506 15.815C9.18506 9.84625 14.0313 5 20.0001 5Z" fill="url(#paint1_linear_293_2955)"/>
<defs>
<linearGradient id="paint0_linear_293_2955" x1="28.1902" y1="7.34302" x2="12.8611" y2="23.7456" gradientUnits="userSpaceOnUse">
<stop stop-color="#9CFF82"/>
<stop offset="1" stop-color="#3968F4"/>
</linearGradient>
<linearGradient id="paint1_linear_293_2955" x1="33.3151" y1="2.5" x2="0.202886" y2="28.34" gradientUnits="userSpaceOnUse">
<stop stop-color="#9CFF82"/>
<stop offset="1" stop-color="#3968F4"/>
</linearGradient>
</defs>
</svg>
