<svg width="40" height="40" viewBox="0 0 40 40" fill="none" xmlns="http://www.w3.org/2000/svg">
<g clip-path="url(#clip0_293_2942)">
<path d="M10.0326 2.03114L6.1771 5.88426C5.89738 6.16399 5.74023 6.54337 5.74023 6.93895C5.74023 7.33454 5.89738 7.71392 6.1771 7.99364C6.45682 8.27336 6.8362 8.43051 7.23179 8.43051C7.62737 8.43051 8.00675 8.27336 8.28648 7.99364L12.1427 4.13739C12.4219 3.85767 12.5786 3.47849 12.5782 3.08327C12.5778 2.68806 12.4205 2.30917 12.1408 2.02997C11.8611 1.75077 11.4819 1.59412 11.0867 1.59448C10.6914 1.59485 10.3126 1.7522 10.0333 2.03192L10.0326 2.03114Z" fill="url(#paint0_linear_293_2942)"/>
<path d="M4.66967 3.02335C4.39043 2.74421 4.01176 2.5874 3.61693 2.5874C3.2221 2.5874 2.84343 2.74421 2.5642 3.02335L0.586853 4.99991C0.307132 5.27911 0.149781 5.658 0.149415 6.05322C0.149048 6.44843 0.305697 6.82761 0.584899 7.10733C0.864102 7.38705 1.24299 7.5444 1.63821 7.54477C2.03342 7.54513 2.4126 7.38849 2.69232 7.10928L4.66967 5.12882C4.80844 4.99086 4.91857 4.82684 4.99372 4.64617C5.06887 4.4655 5.10756 4.27176 5.10756 4.07608C5.10756 3.88041 5.06887 3.68666 4.99372 3.50599C4.91857 3.32532 4.80844 3.1613 4.66967 3.02335Z" fill="url(#paint1_linear_293_2942)"/>
<path d="M37.8462 27.7343C37.567 27.4551 37.1883 27.2983 36.7935 27.2983C36.3986 27.2983 36.02 27.4551 35.7407 27.7343L31.8845 31.5905C31.614 31.8715 31.4646 32.2474 31.4683 32.6374C31.4721 33.0274 31.6286 33.4003 31.9044 33.6761C32.1802 33.9519 32.5531 34.1084 32.9431 34.1122C33.3331 34.1159 33.709 33.9665 33.99 33.696L37.8462 29.8437C37.985 29.7053 38.0951 29.5409 38.1703 29.36C38.2454 29.179 38.2841 28.9849 38.2841 28.789C38.2841 28.593 38.2454 28.399 38.1703 28.218C38.0951 28.037 37.985 27.8726 37.8462 27.7343Z" fill="url(#paint2_linear_293_2942)"/>
<path d="M34.7447 35.2038L32.7673 37.1812C32.4968 37.4622 32.3474 37.838 32.3511 38.228C32.3549 38.618 32.5114 38.991 32.7872 39.2667C33.063 39.5425 33.4359 39.6991 33.8259 39.7028C34.2159 39.7065 34.5918 39.5571 34.8728 39.2866L36.8501 37.3093C37.1206 37.0283 37.27 36.6524 37.2663 36.2624C37.2626 35.8725 37.106 35.4995 36.8302 35.2237C36.5544 34.948 36.1815 34.7914 35.7915 34.7877C35.4015 34.7839 35.0256 34.9334 34.7447 35.2038Z" fill="url(#paint3_linear_293_2942)"/>
<path d="M1.57806 39.9709C1.65543 39.9856 1.73376 39.9948 1.81243 39.9983H1.91712C2.71494 39.9931 3.48898 39.726 4.12025 39.2381C4.31321 39.4869 4.56939 39.6794 4.86208 39.7955C5.15477 39.9117 5.47325 39.9471 5.78431 39.8983C7.8429 39.5858 9.4515 38.8592 10.5663 37.7444C11.6257 36.6453 12.2113 35.1743 12.1972 33.6478C12.1832 32.1214 11.5705 30.6615 10.4911 29.5821C9.41173 28.5027 7.9518 27.89 6.42536 27.876C4.89892 27.8619 3.42795 28.4475 2.32884 29.5069C1.04993 30.7858 0.288216 32.7006 0.0632159 35.1983C-0.030852 36.2535 -0.0245738 37.3153 0.0819659 38.3694C0.12466 38.7622 0.293532 39.1306 0.563264 39.4193C0.832995 39.7081 1.18905 39.9016 1.57806 39.9709ZM3.02259 35.4615C3.13197 34.235 3.46478 32.5709 4.42884 31.6061C4.69314 31.3363 5.00832 31.1216 5.35614 30.9743C5.70395 30.8271 6.0775 30.7503 6.45519 30.7484C6.83287 30.7465 7.20719 30.8195 7.55648 30.9631C7.90578 31.1068 8.22313 31.3183 8.49017 31.5854C8.75721 31.8525 8.96864 32.1699 9.11224 32.5192C9.25583 32.8685 9.32874 33.2428 9.32674 33.6205C9.32474 33.9982 9.24788 34.3717 9.1006 34.7195C8.95331 35.0673 8.73854 35.3824 8.46869 35.6467C8.0054 36.11 7.32103 36.4748 6.45775 36.7233C6.45382 36.3257 6.32864 35.9387 6.09891 35.6142C5.86919 35.2896 5.54588 35.0429 5.17218 34.907C4.79849 34.7711 4.39223 34.7525 4.00769 34.8537C3.62315 34.9549 3.27865 35.171 3.02025 35.4733L3.02259 35.4615Z" fill="url(#paint4_linear_293_2942)"/>
<path d="M35.3474 0.0358336C32.0442 -0.156354 28.5341 0.448334 25.1981 1.79677C21.7778 3.17958 18.5302 5.35146 15.8052 8.07646L14.3747 9.50771C14.0036 9.8788 13.6388 10.264 13.281 10.6585H9.39189C7.95283 10.714 6.64346 11.5093 5.88877 12.7858L3.16143 18.2335L3.13799 18.2913C3.02648 18.5803 2.94786 18.8808 2.90361 19.1874L2.8833 19.3085V19.4311C2.88413 20.1662 3.17651 20.871 3.69631 21.3908C4.2161 21.9106 4.92086 22.203 5.65596 22.2038H7.32549C7.36143 23.5069 7.84893 24.7038 8.74268 25.5991L14.4013 31.2569C15.295 32.1507 16.4927 32.6382 17.7958 32.6741V34.3421C17.7966 35.0772 18.089 35.7819 18.6088 36.3017C19.1286 36.8215 19.8334 37.1139 20.5685 37.1147H20.6911L20.8122 37.0944C21.1187 37.0501 21.4193 36.9714 21.7083 36.8601L21.7661 36.8374L27.1216 34.1593L27.213 34.1093C27.8333 33.7511 28.3534 33.2424 28.7252 32.6301C29.097 32.0178 29.3086 31.3218 29.3403 30.6061V26.7186C29.7349 26.364 30.1216 25.9991 30.4911 25.6249L31.9208 24.1952C34.6458 21.4702 36.8177 18.2226 38.2005 14.8022C39.5505 11.4663 40.1599 7.95615 39.963 4.65302C39.8106 2.0874 37.913 0.188959 35.3474 0.0358336ZM29.8224 22.0952L28.3927 23.5249C27.9146 24.003 27.4091 24.471 26.8903 24.9163L26.3724 25.3608V30.5171C26.3556 30.7246 26.2893 30.925 26.1793 31.1017C26.0692 31.2784 25.9184 31.4262 25.7396 31.5327L20.7646 34.0202V29.003L18.8575 29.5686C17.92 29.8476 17.0364 29.6944 16.5005 29.1577L10.8419 23.4991C10.3052 22.9632 10.1521 22.0819 10.431 21.1421L10.9966 19.2351H5.97939L8.46689 14.2601C8.57347 14.0812 8.72126 13.9305 8.89793 13.8204C9.0746 13.7103 9.27504 13.6441 9.48252 13.6272H14.6388L15.0833 13.1093C15.5278 12.5913 15.9966 12.0858 16.4747 11.6069L17.9044 10.1772C22.7544 5.32724 29.2091 2.64287 35.17 2.9999C36.2349 3.06318 36.9356 3.76396 36.9989 4.82802C37.3552 10.7905 34.6724 17.2452 29.8224 22.0952Z" fill="url(#paint5_linear_293_2942)"/>
<path d="M26.9631 6.98901C25.9691 6.98958 24.9905 7.23521 24.1141 7.70417C23.2376 8.17313 22.4903 8.85094 21.9383 9.6776C21.3864 10.5043 21.0467 11.4543 20.9494 12.4435C20.8522 13.4328 21.0003 14.4307 21.3807 15.3491C21.7612 16.2674 22.3621 17.0778 23.1305 17.7084C23.8988 18.3391 24.8107 18.7706 25.7856 18.9648C26.7605 19.1589 27.7682 19.1097 28.7195 18.8215C29.6708 18.5333 30.5364 18.015 31.2396 17.3125C32.0852 16.4666 32.6611 15.3891 32.8943 14.216C33.1275 13.043 33.0077 11.8271 32.5499 10.7221C32.0922 9.61716 31.3171 8.67274 30.3227 8.00826C29.3282 7.34378 28.1591 6.98908 26.9631 6.98901ZM29.1404 15.2132C28.6368 15.7168 27.9743 16.0302 27.2656 16.1C26.5568 16.1698 25.8459 15.9917 25.2537 15.596C24.6616 15.2004 24.225 14.6117 24.0183 13.9302C23.8115 13.2487 23.8475 12.5167 24.12 11.8587C24.3926 11.2008 24.8848 10.6577 25.5128 10.322C26.1409 9.9863 26.8659 9.87876 27.5644 10.0177C28.2628 10.1566 28.8915 10.5334 29.3433 11.0839C29.795 11.6344 30.042 12.3245 30.042 13.0367C30.0415 13.8529 29.7172 14.6357 29.1404 15.2132Z" fill="url(#paint6_linear_293_2942)"/>
</g>
<defs>
<linearGradient id="paint0_linear_293_2942" x1="12.5782" y1="1.59448" x2="5.91314" y2="8.43241" gradientUnits="userSpaceOnUse">
<stop stop-color="#9CFF82"/>
<stop offset="1" stop-color="#3968F4"/>
</linearGradient>
<linearGradient id="paint1_linear_293_2942" x1="5.10756" y1="2.5874" x2="0.274147" y2="7.54553" gradientUnits="userSpaceOnUse">
<stop stop-color="#9CFF82"/>
<stop offset="1" stop-color="#3968F4"/>
</linearGradient>
<linearGradient id="paint2_linear_293_2942" x1="38.2841" y1="27.2983" x2="31.6406" y2="34.1141" gradientUnits="userSpaceOnUse">
<stop stop-color="#9CFF82"/>
<stop offset="1" stop-color="#3968F4"/>
</linearGradient>
<linearGradient id="paint3_linear_293_2942" x1="37.2663" y1="34.7876" x2="32.474" y2="39.7029" gradientUnits="userSpaceOnUse">
<stop stop-color="#9CFF82"/>
<stop offset="1" stop-color="#3968F4"/>
</linearGradient>
<linearGradient id="paint4_linear_293_2942" x1="12.1975" y1="27.8757" x2="0.380154" y2="40.0739" gradientUnits="userSpaceOnUse">
<stop stop-color="#9CFF82"/>
<stop offset="1" stop-color="#3968F4"/>
</linearGradient>
<linearGradient id="paint5_linear_293_2942" x1="39.9992" y1="0.00097783" x2="3.8133" y2="37.1168" gradientUnits="userSpaceOnUse">
<stop stop-color="#9CFF82"/>
<stop offset="1" stop-color="#3968F4"/>
</linearGradient>
<linearGradient id="paint6_linear_293_2942" x1="33.0104" y1="6.98901" x2="21.2205" y2="19.0791" gradientUnits="userSpaceOnUse">
<stop stop-color="#9CFF82"/>
<stop offset="1" stop-color="#3968F4"/>
</linearGradient>
<clipPath id="clip0_293_2942">
<rect width="40" height="40" fill="white"/>
</clipPath>
</defs>
</svg>
