<svg width="40" height="40" viewBox="0 0 40 40" fill="none" xmlns="http://www.w3.org/2000/svg">
<g clip-path="url(#clip0_293_2964)">
<path d="M34.6 35H25.2833C24.3667 35 23.6167 34.25 23.6167 33.3333C23.6167 32.4167 24.3667 31.6667 25.2833 31.6667H34.6C35.7333 31.6667 36.6667 30.75 36.6667 29.6V5.4C36.6667 4.26667 35.75 3.33333 34.6 3.33333H10.4C9.26667 3.33333 8.33333 4.25 8.33333 5.4V14.7167C8.33333 15.6333 7.58333 16.3833 6.66667 16.3833C5.75 16.3833 5 15.6333 5 14.7167V5.4C5 2.43333 7.41667 0 10.4 0H34.6167C37.5833 0 40.0167 2.41667 40.0167 5.4V29.6167C40.0167 32.5833 37.6 35.0167 34.6167 35.0167L34.6 35Z" fill="url(#paint0_linear_293_2964)"/>
<path d="M25 13.3333H18.3333C17.4167 13.3333 16.6667 14.0833 16.6667 14.9999C16.6667 15.9166 17.4167 16.6666 18.3333 16.6666H20.9667L17.15 20.4833C16.5 20.1833 15.7667 19.9999 15 19.9999H5C2.25 19.9999 0 22.2499 0 24.9999V34.9999C0 37.7499 2.25 39.9999 5 39.9999H15C17.75 39.9999 20 37.7499 20 34.9999V24.9999C20 24.2333 19.8167 23.4999 19.5 22.8499H19.5167L23.3333 19.0333V21.6666C23.3333 22.5833 24.0833 23.3333 25 23.3333C25.9167 23.3333 26.6667 22.5833 26.6667 21.6666V14.9999C26.6667 14.0833 25.9167 13.3333 25 13.3333ZM16.6667 34.9999C16.6667 35.9166 15.9167 36.6666 15 36.6666H5C4.08333 36.6666 3.33333 35.9166 3.33333 34.9999V24.9999C3.33333 24.0833 4.08333 23.3333 5 23.3333H15C15.9167 23.3333 16.6667 24.0833 16.6667 24.9999V34.9999Z" fill="url(#paint1_linear_293_2964)"/>
</g>
<defs>
<linearGradient id="paint0_linear_293_2964" x1="40.0167" y1="1.19609e-06" x2="5.87542" y2="35.0167" gradientUnits="userSpaceOnUse">
<stop stop-color="#9CFF82"/>
<stop offset="1" stop-color="#3968F4"/>
</linearGradient>
<linearGradient id="paint1_linear_293_2964" x1="26.6667" y1="13.3333" x2="0.666668" y2="39.9999" gradientUnits="userSpaceOnUse">
<stop stop-color="#9CFF82"/>
<stop offset="1" stop-color="#3968F4"/>
</linearGradient>
<clipPath id="clip0_293_2964">
<rect width="40" height="40" fill="white"/>
</clipPath>
</defs>
</svg>
