<svg width="40" height="40" viewBox="0 0 40 40" fill="none" xmlns="http://www.w3.org/2000/svg">
<path d="M32.9698 15H25.6465L27.0848 10.68C27.5307 9.3312 27.5224 7.87351 27.0613 6.52989C26.6002 5.18627 25.7116 4.0307 24.5315 3.23996C23.6482 2.65921 22.574 2.4441 21.5352 2.63998C20.4964 2.83586 19.5743 3.42742 18.9632 4.28996L11.1415 15.4566C10.8337 15.1634 10.4249 14.9999 9.99984 15H3.33317C2.89114 15 2.46722 15.1756 2.15466 15.4881C1.8421 15.8007 1.6665 16.2246 1.6665 16.6666V36.6666C1.6665 37.1087 1.8421 37.5326 2.15466 37.8451C2.46722 38.1577 2.89114 38.3333 3.33317 38.3333H9.99984C10.4419 38.3333 10.8658 38.1577 11.1783 37.8451C11.4909 37.5326 11.6665 37.1087 11.6665 36.6666V36.4466L14.0748 38.0533C14.349 38.2354 14.6707 38.3328 14.9998 38.3333H29.9998C30.3096 38.3334 30.6132 38.2473 30.8767 38.0845C31.1402 37.9217 31.3531 37.6887 31.4915 37.4116L37.5882 25.2166C38.0765 24.2359 38.3315 23.1555 38.3332 22.06V20.3633C38.3314 18.9414 37.7658 17.5782 36.7603 16.5728C35.7549 15.5674 34.3917 15.0017 32.9698 15ZM8.33317 35H4.99984V18.3333H8.33317V35ZM34.9998 22.06C34.9987 22.6384 34.8641 23.2087 34.6065 23.7266L28.9698 35H15.4998L11.6665 32.4416V20.525L21.6948 6.19996C21.8021 6.04531 21.9658 5.93905 22.1508 5.90413C22.3357 5.8692 22.5269 5.90841 22.6832 6.01329C23.2565 6.39713 23.6883 6.95833 23.9122 7.61095C24.1362 8.26357 24.14 8.97161 23.9232 9.62662L21.7565 16.14C21.6732 16.3901 21.6504 16.6565 21.69 16.9171C21.7297 17.1778 21.8306 17.4254 21.9845 17.6394C22.1384 17.8535 22.3409 18.0281 22.5753 18.1487C22.8098 18.2693 23.0695 18.3326 23.3332 18.3333H32.9698C33.5081 18.3337 34.0242 18.5477 34.4048 18.9284C34.7854 19.309 34.9994 19.825 34.9998 20.3633V22.06Z" fill="url(#paint0_linear_293_2932)"/>
<defs>
<linearGradient id="paint0_linear_293_2932" x1="38.3332" y1="2.56934" x2="3.49612" y2="39.2015" gradientUnits="userSpaceOnUse">
<stop stop-color="#9CFF82"/>
<stop offset="1" stop-color="#3968F4"/>
</linearGradient>
</defs>
</svg>
